<svg data-icon-name="favourite-alt" data-style="line" icon_origin_id="21379" viewBox="0 0 24 24" xmlns="http://www.w3.org/2000/svg" data-name="Flat Line" id="favourite-alt" class="icon line" width="48" height="48"><path style="fill: rgb(246, 146, 30); stroke-width: 1; stroke: rgb(0, 0, 0);" d="M21,9c0,8.18-9,12-9,12S3,17.22,3,9A4.79,4.79,0,0,1,7.5,4,4.79,4.79,0,0,1,12,9a4.79,4.79,0,0,1,4.5-5A4.79,4.79,0,0,1,21,9Z" id="secondary"></path><path style="fill: none; stroke: rgb(0, 0, 0); stroke-linecap: round; stroke-linejoin: round; stroke-width: 1;" d="M21,9c0,8.18-9,12-9,12S3,17.22,3,9A4.79,4.79,0,0,1,7.5,4,4.79,4.79,0,0,1,12,9a4.79,4.79,0,0,1,4.5-5A4.79,4.79,0,0,1,21,9Z" id="primary"></path></svg>