<svg data-icon-name="delete-collection" data-style="line" icon_origin_id="14089" viewBox="0 0 24 24" xmlns="http://www.w3.org/2000/svg" data-name="Flat Color" id="delete-collection" class="icon line" width="48" height="48"><path style="fill: rgb(101, 45, 144); stroke-width: 1; stroke: rgb(0, 0, 0);" d="M18,4V16a2,2,0,0,1-2,2H4a2,2,0,0,1-2-2V4A2,2,0,0,1,4,2H16A2,2,0,0,1,18,4Zm4,16V5a1,1,0,0,0-2,0V20H7a1,1,0,0,0,0,2H20A2,2,0,0,0,22,20Z" id="primary"></path><path style="fill: rgb(246, 146, 30); stroke-width: 1; stroke: rgb(0, 0, 0);" d="M11.41,10l1.42-1.41a1,1,0,1,0-1.42-1.42L10,8.59,8.59,7.17A1,1,0,0,0,7.17,8.59L8.59,10,7.17,11.41a1,1,0,0,0,0,1.42,1,1,0,0,0,.71.29,1,1,0,0,0,.71-.29L10,11.41l1.41,1.42a1,1,0,0,0,.71.29,1,1,0,0,0,.71-.29,1,1,0,0,0,0-1.42Z" id="secondary"></path></svg>