<svg data-icon-name="appartment" data-style="line" icon_origin_id="14838" viewBox="0 0 24 24" xmlns="http://www.w3.org/2000/svg" data-name="Flat Color" id="appartment" class="icon line" width="48" height="48"><path style="fill: rgb(246, 146, 30); stroke-width: 1; stroke: rgb(0, 0, 0);" d="M20,5H15a1,1,0,0,0-1,1V21a1,1,0,0,0,1,1h6a1,1,0,0,0,1-1V7A2,2,0,0,0,20,5Z" id="secondary"></path><path style="fill: rgb(101, 45, 144); stroke-width: 1; stroke: rgb(0, 0, 0);" d="M14,2H4A2,2,0,0,0,2,4V21a1,1,0,0,0,1,1H16V4A2,2,0,0,0,14,2Z" id="primary"></path><path style="fill: rgb(246, 146, 30); stroke-width: 1; stroke: rgb(0, 0, 0);" d="M12,15v7H6V15a1,1,0,0,1,1-1h4A1,1,0,0,1,12,15ZM7,8h4a1,1,0,0,0,0-2H7A1,1,0,0,0,7,8Zm4,2H7a1,1,0,0,0,0,2h4a1,1,0,0,0,0-2Z" data-name="secondary" id="secondary-2"></path></svg>